<svg width="50" height="58" viewBox="0 0 50 58" fill="none" xmlns="http://www.w3.org/2000/svg">
<g clip-path="url(#clip0_141_2)">
<path d="M10.7143 14.2857C10.7143 18.0745 12.2194 21.7081 14.8985 24.3872C17.5776 27.0663 21.2112 28.5714 25 28.5714C28.7888 28.5714 32.4224 27.0663 35.1015 24.3872C37.7806 21.7081 39.2857 18.0745 39.2857 14.2857C39.2857 10.4969 37.7806 6.86328 35.1015 4.18419C32.4224 1.5051 28.7888 0 25 0C21.2112 0 17.5776 1.5051 14.8985 4.18419C12.2194 6.86328 10.7143 10.4969 10.7143 14.2857ZM21.2612 36.6295L23.3371 40.0893L19.6205 53.9174L15.6027 37.5223C15.3795 36.6183 14.5089 36.0268 13.6049 36.2612C5.79241 38.2143 0 45.2902 0 53.7165C0 55.6138 1.54018 57.1429 3.42634 57.1429H18.125C18.125 57.1429 18.125 57.1429 18.1362 57.1429H18.75H31.25H31.8638C31.8638 57.1429 31.8638 57.1429 31.875 57.1429H46.5737C48.471 57.1429 50 55.6027 50 53.7165C50 45.2902 44.2076 38.2143 36.3951 36.2612C35.4911 36.0379 34.6205 36.6295 34.3973 37.5223L30.3795 53.9174L26.6629 40.0893L28.7388 36.6295C29.4531 35.4353 28.5938 33.9286 27.2098 33.9286H25H22.8013C21.4174 33.9286 20.558 35.4464 21.2723 36.6295H21.2612Z" fill="#0D0D0D"/>
</g>
<defs>
<clipPath id="clip0_141_2">
<rect width="50" height="57.1429" fill="white"/>
</clipPath>
</defs>
</svg>
