<svg width="60" height="54" viewBox="0 0 60 54" fill="none" xmlns="http://www.w3.org/2000/svg">
<path d="M30.2917 5.06252L38.4583 8.15627L30 11.4063L21.5417 8.15627L29.7083 5.06252C29.8958 4.9896 30.1042 4.9896 30.3021 5.06252H30.2917ZM14.1667 9.63544V21.3229C14.0313 21.3646 13.8958 21.4063 13.7604 21.4584L3.76042 25.25C1.5 26.1042 0 28.2813 0 30.6979V43.1146C0 45.4271 1.36458 47.5209 3.48958 48.4584L13.4896 52.8542C14.9896 53.5104 16.6875 53.5104 18.1875 52.8542L30 47.6563L41.8229 52.8542C43.3229 53.5104 45.0208 53.5104 46.5208 52.8542L56.5208 48.4584C58.6354 47.5313 60.0104 45.4271 60.0104 43.1146V30.7084C60.0104 28.2813 58.5104 26.1146 56.25 25.25L46.25 21.4584C46.1146 21.4063 45.9792 21.3646 45.8438 21.3229V9.63544C45.8438 7.20835 44.3438 5.04169 42.0833 4.1771L32.0833 0.385437C30.75 -0.114563 29.2813 -0.114563 27.9479 0.385437L17.9479 4.1771C15.6667 5.04169 14.1667 7.21877 14.1667 9.63544ZM40.8333 21.9375L32.25 25.1875V15.8959L40.8333 12.6042V21.9375ZM16.125 26.1354L24.2917 29.2292L15.8333 32.4688L7.375 29.2292L15.5417 26.1354C15.7292 26.0625 15.9375 26.0625 16.1354 26.1354H16.125ZM18.0833 47.4271V36.9584L26.6667 33.6667V43.6563L18.0833 47.4271ZM43.875 26.1354C44.0625 26.0625 44.2708 26.0625 44.4688 26.1354L52.6354 29.2292L44.1667 32.4688L35.7083 29.2292L43.875 26.1354ZM54.5 43.875L46.4167 47.4271V36.9584L55 33.6667V43.1146C55 43.4479 54.8021 43.7396 54.5 43.875Z" fill="#F66B0E"/>
</svg>
