<svg width="1440" height="1024" viewBox="0 0 1440 1024" fill="none" xmlns="http://www.w3.org/2000/svg">
<g clip-path="url(#clip0_136_2)">
<rect width="1440" height="1024" fill="#205375"/>
<path d="M1680 331C1680 446.98 1585.98 541 1470 541C1354.02 541 1260 446.98 1260 331C1260 215.02 1354.02 121 1470 121C1585.98 121 1680 215.02 1680 331Z" fill="#5389AC" fill-opacity="0.39"/>
<path d="M1452 44C1452 159.98 1357.98 254 1242 254C1126.02 254 1032 159.98 1032 44C1032 -71.9798 1126.02 -166 1242 -166C1357.98 -166 1452 -71.9798 1452 44Z" fill="#5389AC" fill-opacity="0.39"/>
<path d="M360 1039C360 1154.98 265.98 1249 150 1249C34.0202 1249 -60 1154.98 -60 1039C-60 923.02 34.0202 829 150 829C265.98 829 360 923.02 360 1039Z" fill="#5389AC" fill-opacity="0.39"/>
<path d="M217 770C217 885.98 122.98 980 7 980C-108.98 980 -203 885.98 -203 770C-203 654.02 -108.98 560 7 560C122.98 560 217 654.02 217 770Z" fill="#5389AC" fill-opacity="0.39"/>
</g>
<defs>
<clipPath id="clip0_136_2">
<rect width="1440" height="1024" fill="white"/>
</clipPath>
</defs>
</svg>
